<?xml version="1.0" encoding="utf-8"?>
<!-- Generator: Adobe Illustrator 21.0.0, SVG Export Plug-In . SVG Version: 6.00 Build 0)  -->
<svg version="1.1" id="Ebene_1" xmlns="http://www.w3.org/2000/svg" xmlns:xlink="http://www.w3.org/1999/xlink" x="0px" y="0px"
	 viewBox="0 0 300 300" style="enable-background:new 0 0 300 300;" xml:space="preserve">
<style type="text/css">
	.st0{fill:#DC2B81;}
	.st1{fill:#3975BA;}
</style>
<title>AW-logolight</title>
<path class="st0" d="M172.9,54.2c-5-7.5-13.3-12.2-22.3-12.4l0,0h-1.8l0,0c-9,0.2-17.4,4.8-22.3,12.3l-52.1,98.7h29.5l35.4-73.8
	c2.2-3.8,6.1-6.2,10.4-6.6c4.3,0.4,8.2,2.8,10.4,6.6l35.4,73.9H225L172.9,54.2z"/>
<path class="st1" d="M250.6,152.6l-38.7,79c0,0-2.1,4-5,4c-2.9,0-4.9-4.1-4.9-4.1l-38.4-77.3c-2.7-4.7-5.8-8.7-13.6-8.9h-0.3
	c-7.9,0-10.8,4.2-13.6,8.9l-38.4,77.4c0,0-1.9,4-4.9,4s-5-4-5-4l-38.6-79H21.5l44.9,89.7c5.2,9.8,15.3,15.9,26.4,15.9
	c21.3,0,28.9-19,28.9-19l23.8-50.4c1.5-2.9,2.9-3.8,4.2-3.9h0.6c1.3,0,2.7,1.1,4.2,3.9l23.8,50.4c0,0,7.6,19,28.9,19
	c11,0,21.2-6.2,26.4-15.9l44.9-89.7H250.6z"/>
</svg>
