<svg id="Ebene_1" data-name="Ebene 1" xmlns="http://www.w3.org/2000/svg" viewBox="0 0 474.55 74.81"><defs><style>.cls-1{fill:#fff;}.cls-2{fill:#dc2b81;}.cls-3{fill:#3975ba;}</style></defs><title>AW-logolight</title><path class="cls-1" d="M141.93,61.28,136.1,45h-15l-5.64,16.32-3.74-.43L127.2,15.13h2.7l15.71,45.71Zm-13.5-39.95-5.52,19.82H134.2Z"/><path class="cls-1" d="M157.57,61.52q-8.1,0-8.1-9.14V29.31H146.1l.37-3.44h3.13V17.22a7,7,0,0,1,2-.67,8,8,0,0,0,1.78-.67v10h7.24v3.38h-7.24V52.62q0,5.1,4.66,5.1h1a3.25,3.25,0,0,0,.92-.13,4,4,0,0,0,.67-.06,3.27,3.27,0,0,0,.67-.18V61A17.22,17.22,0,0,1,157.57,61.52Z"/><path class="cls-1" d="M174,61.52q-8.1,0-8.1-9.14V29.31h-3.37l.37-3.44H166V17.22a7,7,0,0,1,2-.67,7.89,7.89,0,0,0,1.78-.67v10H177v3.38h-7.24V52.62q0,5.1,4.66,5.1h1a3.22,3.22,0,0,0,.92-.13,4,4,0,0,0,.67-.06,3.25,3.25,0,0,0,.68-.18V61A17.24,17.24,0,0,1,174,61.52Z"/><path class="cls-1" d="M195.24,29.06v.18a7.05,7.05,0,0,0-2.94.61,5.86,5.86,0,0,0-2.45,2.46,24.3,24.3,0,0,0-3.07,9V60.54l-3.8.55v-35l3.93-.43v6.44A12.68,12.68,0,0,1,190.43,27a8,8,0,0,1,5.18-1.72Z"/><path class="cls-1" d="M216,60.85l-1.17.13-.18-4.55q-3.44,5.28-7.86,5.28A8.43,8.43,0,0,1,200,58.57a11.62,11.62,0,0,1-2.58-7.86,11.88,11.88,0,0,1,3.07-8.4,13,13,0,0,1,7.73-4l1.35-.06q.49,0,.85,0l.68,0a10.62,10.62,0,0,1,3.25.67V35.19q0-6.75-5.46-6.75a10,10,0,0,0-7.67,2.95l-.92-3.07Q203.29,25,209,25q9.14,0,9.14,10.74V59.62a2.16,2.16,0,0,1,.06.62c0,.07.23.16.67.24v.37Zm-1.72-15.59a4.14,4.14,0,0,0-2-3.07,4.59,4.59,0,0,0-2.27-.67,4.89,4.89,0,0,0-1.6.25q-7.3,1.28-7.3,9a8.82,8.82,0,0,0,1.53,5.16,4.72,4.72,0,0,0,4.05,2.21,6.9,6.9,0,0,0,5-2.4,9,9,0,0,0,2.57-5Z"/><path class="cls-1" d="M237,61.7a11,11,0,0,1-9.51-5q-3.37-4.85-3.37-13.25,0-8.22,3.44-13.32a11,11,0,0,1,9.51-5.09q6.19,0,9.39,6.62l-2.82,2.09a11.22,11.22,0,0,0-.86-1.87,8.49,8.49,0,0,0-1.28-1.63,6,6,0,0,0-4.05-1.84q-9.38,0-9.39,14.91,0,6.75,2.33,10.86t6.51,4a6.74,6.74,0,0,0,4.6-2A9.05,9.05,0,0,0,243,54.43a14.93,14.93,0,0,0,1.11-2.24l2.71,2Q243.84,61.7,237,61.7Z"/><path class="cls-1" d="M261.7,61.52q-8.1,0-8.1-9.14V29.31h-3.38l.37-3.44h3.13V17.22a7,7,0,0,1,2-.67,8.08,8.08,0,0,0,1.78-.67v10h7.24v3.38h-7.24V52.62c0,3.4,1.55,5.1,4.67,5.1h1a3.21,3.21,0,0,0,.93-.13,4,4,0,0,0,.67-.06,3.18,3.18,0,0,0,.67-.18V61A17.18,17.18,0,0,1,261.7,61.52Z"/><path class="cls-1" d="M272.31,17.89c-1.64,0-2.45-.78-2.45-2.33a2.45,2.45,0,0,1,4.91-.06A2.14,2.14,0,0,1,272.31,17.89Zm-1.84,43.2V26.36l2.7-.61,1.17-.06V60.54Z"/><path class="cls-1" d="M293.72,61.15h-2.57L280,25.87l3.68-.31,8.78,29,8.28-29,4,.31Z"/><path class="cls-1" d="M320.11,61.7a11.15,11.15,0,0,1-9.64-5q-3.43-5-3.43-13.38,0-8,3.37-13.19a10.71,10.71,0,0,1,9.33-5.09,8.84,8.84,0,0,1,7.3,3.62,13.32,13.32,0,0,1,2.4,4.7c.4,1.58.76,3.26,1,5.06l-19.39,8.16a21.32,21.32,0,0,0,2.09,7.49q2.45,4.17,6.68,4.17A7.94,7.94,0,0,0,325,56.06a16.84,16.84,0,0,0,3.69-4.66l2.21,2.46Q327,61.71,320.11,61.7Zm5.58-28.56a9,9,0,0,0-1.51-2.61,5.71,5.71,0,0,0-2-1.53,5.18,5.18,0,0,0-2.18-.49,7.4,7.4,0,0,0-6.69,4.11q-2.21,3.74-2.33,10.43l15.46-6.26A13.25,13.25,0,0,0,325.69,33.14Z"/><path class="cls-1" d="M378.83,61.28h-2.45L368,26.12,359.5,61.28H357L345.88,15.69l4.05-.55,8.28,35.65L367,15l2.63.06,8.47,35.47,8.22-35.4,4.23.55Z"/><path class="cls-1" d="M412.64,56.61a11.07,11.07,0,0,1-9.39,5.09,10.79,10.79,0,0,1-9.32-5.09q-3.44-5-3.44-13.26,0-8,3.44-13.13a11.12,11.12,0,0,1,18.77,0q3.44,5.1,3.44,13.13Q416.14,51.59,412.64,56.61Zm-2.82-24q-2.51-4.17-6.57-4.17t-6.5,4.17a21.34,21.34,0,0,0-2.4,10.74q0,6.81,2.4,10.92t6.5,4.05q4.06,0,6.57-4.05t2.45-10.92A21.22,21.22,0,0,0,409.82,32.62Z"/><path class="cls-1" d="M434.66,29.06v.18a7,7,0,0,0-2.94.61,5.89,5.89,0,0,0-2.45,2.46,24.23,24.23,0,0,0-3.07,9V60.54l-3.8.55v-35l3.93-.43v6.44A12.77,12.77,0,0,1,429.85,27,8,8,0,0,1,435,25.32Z"/><path class="cls-1" d="M440.37,61.09V14.95l3.75-.55V60.54Z"/><path class="cls-1" d="M470.92,61.22V56.73q-2.7,5-9,5-5.47,0-9-5.09t-3.5-12.83a23.28,23.28,0,0,1,3.68-13.32q3.63-5.4,9.09-5.4,5.15,0,8.65,5.34V14.95l3.62-.55V60.85ZM470.75,39a9.84,9.84,0,0,0-.8-4,15.17,15.17,0,0,0-2-3.38,7.47,7.47,0,0,0-5.83-3.13q-3.81,0-6.26,4.36A22.85,22.85,0,0,0,453.44,44,19.24,19.24,0,0,0,456,54.16q2.46,4,6.08,4c2,0,3.86-1,5.59-3.13a14.47,14.47,0,0,0,2.05-3.43,16.89,16.89,0,0,0,1.07-4Z"/><path class="cls-2" d="M52.33,4.28A9.51,9.51,0,0,0,44.62,0V0H44V0a9.51,9.51,0,0,0-7.72,4.25l-18,34.13H28.49L40.72,12.88a4.63,4.63,0,0,1,3.59-2.28,4.63,4.63,0,0,1,3.59,2.28L60.12,38.41H70.34Z"/><path class="cls-3" d="M79.2,38.28,65.83,65.6S65.12,67,64.11,67s-1.68-1.41-1.68-1.41L49.17,38.88c-.95-1.63-2-3-4.69-3.08h-.12c-2.72,0-3.74,1.45-4.69,3.08L26.41,65.62S25.74,67,24.73,67,23,65.6,23,65.6L9.65,38.28H0l15.51,31a10.37,10.37,0,0,0,9.11,5.5c7.35,0,10-6.57,10-6.57l8.24-17.43c.51-1,1-1.31,1.45-1.35h.22c.44,0,.94.39,1.45,1.35l8.24,17.43s2.64,6.57,10,6.57a10.37,10.37,0,0,0,9.11-5.5l15.51-31Z"/></svg>